# xmcd
#
# Track frame offsets: 
#        150
#        10725
#        21253
#        32850
#        46425
#        60300
#        75600
#        87975
#        104025
#        115950
#        127575
#        140400
#        154275
#        165750
#        177600
#        188400
#        195825
#
# Disc length: 2786 seconds
#
# Revision: 0
# Processed by: cddbd v1.5.2PL0 Copyright (c) Steve Scherf et al.
# Submitted via: ExactAudioCopy v0.95b3
#
DISCID=cf0ae011
DTITLE=The Byrds  - Never Before  
DYEAR=1900
DGENRE=
TTITLE0=Byrds - Mr. Tambourine Man
TTITLE1=Byrds - I Knew I'd Want You
TTITLE2=Byrds - She Has A Way
TTITLE3=Byrds - Its All Over Now, Baby Blue
TTITLE4=Byrds - Never Before
TTITLE5=Byrds - Eight Miles High
TTITLE6=Byrds - Why
TTITLE7=Byrds - Triad
TTITLE8=Byrds - It Happens Each Day
TTITLE9=Byrds - Lady Friend
TTITLE10=Byrds - I Know My Rider (I Know You, Rider)
TTITLE11=Byrds - Why (Single Version)
TTITLE12=Byrds - She Don't Care About Time
TTITLE13=Byrds - Filght 713 (Instrumental)
TTITLE14=Byrds - Psychodrama City
TTITLE15=Byrds - Don't Make Waves (Single Version)
TTITLE16=Byrds - Moog Raga (Instrumental)
EXTD=
EXTT0=
EXTT1=
EXTT2=
EXTT3=
EXTT4=
EXTT5=
EXTT6=
EXTT7=
EXTT8=
EXTT9=
EXTT10=
EXTT11=
EXTT12=
EXTT13=
EXTT14=
EXTT15=
EXTT16=
PLAYORDER=
